<svg width="43" height="43" viewBox="0 0 43 43" fill="none" xmlns="http://www.w3.org/2000/svg">
<path d="M15.6284 20.8935C15.6284 21.289 15.3119 21.6055 14.9164 21.6055H12.2443C11.8487 21.6055 11.5323 21.289 11.5323 20.8935V18.2214C11.5323 17.8258 11.8487 17.5094 12.2443 17.5094H14.9164C15.3119 17.5094 15.6284 17.8258 15.6284 18.2214V20.8935ZM21.2099 18.2302C21.2099 17.8346 20.8935 17.5182 20.498 17.5182H17.8258C17.4303 17.5182 17.1139 17.8346 17.1139 18.2302V20.9023C17.1139 21.2978 17.4303 21.6143 17.8258 21.6143H20.498C20.8935 21.6143 21.2099 21.2978 21.2099 20.9023V18.2302ZM26.7915 18.2302C26.7915 17.8346 26.4751 17.5182 26.0795 17.5182H23.4074C23.0119 17.5182 22.6954 17.8346 22.6954 18.2302V20.9023C22.6954 21.2978 23.0119 21.6143 23.4074 21.6143H26.0795C26.4751 21.6143 26.7915 21.2978 26.7915 20.9023V18.2302ZM15.6284 23.6623C15.6284 23.2668 15.3119 22.9503 14.9164 22.9503H12.2443C11.8487 22.9503 11.5323 23.2668 11.5323 23.6623V26.3344C11.5323 26.73 11.8487 27.0464 12.2443 27.0464H14.9164C15.3119 27.0464 15.6284 26.73 15.6284 26.3344V23.6623ZM21.2099 23.6623C21.2099 23.2668 20.8935 22.9503 20.498 22.9503H17.8258C17.4303 22.9503 17.1139 23.2668 17.1139 23.6623V26.3344C17.1139 26.73 17.4303 27.0464 17.8258 27.0464H20.498C20.8935 27.0464 21.2099 26.73 21.2099 26.3344V23.6623ZM26.0795 22.9503H23.4074C23.0119 22.9503 22.6954 23.2668 22.6954 23.6623V26.3344C22.6954 26.73 23.0119 27.0464 23.4074 27.0464H26.0795C26.4751 27.0464 26.7915 26.73 26.7915 26.3344V23.6623C26.7915 23.2668 26.4751 22.9503 26.0795 22.9503ZM9.32604 28.3825H6.66271C6.26717 28.3825 5.95074 28.6989 5.95074 29.0944V31.7666C5.95074 32.1621 6.26717 32.4785 6.66271 32.4785H9.33483C9.73038 32.4785 10.0468 32.1621 10.0468 31.7666V29.0944C10.0468 28.6989 9.72159 28.3825 9.32604 28.3825ZM10.0468 23.6623C10.0468 23.2668 9.73038 22.9503 9.33483 22.9503H6.66271C6.26717 22.9503 5.95074 23.2668 5.95074 23.6623V26.3344C5.95074 26.73 6.26717 27.0464 6.66271 27.0464H9.33483C9.73038 27.0464 10.0468 26.73 10.0468 26.3344V23.6623ZM20.498 28.3825H17.8258C17.4303 28.3825 17.1139 28.6989 17.1139 29.0944V31.7666C17.1139 32.1621 17.4303 32.4785 17.8258 32.4785H20.498C20.8935 32.4785 21.2099 32.1621 21.2099 31.7666V29.0944C21.2099 28.6989 20.8935 28.3825 20.498 28.3825ZM14.9164 28.3825H12.2443C11.8487 28.3825 11.5323 28.6989 11.5323 29.0944V31.7666C11.5323 32.1621 11.8487 32.4785 12.2443 32.4785H14.9164C15.3119 32.4785 15.6284 32.1621 15.6284 31.7666V29.0944C15.6284 28.6989 15.3119 28.3825 14.9164 28.3825ZM31.6611 21.6143C32.0566 21.6143 32.3731 21.2978 32.3731 20.9023V18.2302C32.3731 17.8346 32.0566 17.5182 31.6611 17.5182H28.989C28.5934 17.5182 28.277 17.8346 28.277 18.2302V20.9023C28.277 21.2978 28.5934 21.6143 28.989 21.6143H31.6611ZM4.19276 38.2798H24.471C24.1457 37.2602 23.9612 36.1703 23.9524 35.0452H4.19276C3.66537 35.0452 3.24346 34.6145 3.24346 34.0959V14.9955H35.0364V23.8821C36.1615 23.8908 37.2514 24.0578 38.2711 24.3831V8.30642C38.2711 5.99469 36.39 4.11366 34.0783 4.11366H29.3845V1.52944C29.3845 0.685609 28.6989 0 27.8551 0H25.473C24.6292 0 23.9436 0.685609 23.9436 1.52944V4.12244H14.3275V1.52944C14.3275 0.685609 13.6419 0 12.798 0H10.416C9.57216 0 8.88655 0.685609 8.88655 1.52944V4.12244H4.19276C1.88103 4.12244 0 6.00348 0 8.31521V34.0959C0 36.3988 1.88103 38.2798 4.19276 38.2798ZM43 34.9221C43 39.3434 39.4137 42.9297 34.9924 42.9297C30.5711 42.9297 26.9849 39.3434 26.9849 34.9221C26.9849 30.5008 30.5711 26.9146 34.9924 26.9146C39.4137 26.9146 43 30.5008 43 34.9221ZM39.0358 32.8477C39.0358 32.5928 38.9391 32.3467 38.7545 32.1709C38.3765 31.7929 37.77 31.7929 37.3921 32.1709L33.9113 35.6517L32.5752 34.3156C32.1973 33.9377 31.5908 33.9377 31.2128 34.3156C31.0282 34.5002 30.9315 34.7375 30.9315 34.9924C30.9315 35.2473 31.0282 35.4935 31.2128 35.6693L33.2257 37.6821C33.6036 38.0601 34.2101 38.0601 34.5881 37.6821L38.7457 33.5245C38.9391 33.3487 39.0358 33.1026 39.0358 32.8477Z" fill="#e24381"/>
</svg>
