<?xml version="1.0" standalone="no"?>
<!DOCTYPE svg PUBLIC "-//W3C//DTD SVG 1.1//EN" "http://www.w3.org/Graphics/SVG/1.1/DTD/svg11.dtd" >
<svg xmlns="http://www.w3.org/2000/svg" xmlns:xlink="http://www.w3.org/1999/xlink" version="1.1" viewBox="-10 0 468 512">
   <path fill="#fff"
d="M149.8 369l-33.3994 -32.7998c-7.7002 -7.5 -10.4004 -18.5 -7.10059 -28.7002s12 -17.5 22.6006 -19l46.3994 -6.7998l20.7002 -42.1006c4.7002 -9.59961 14.2998 -15.5996 25 -15.5996s20.2998 6 25.2002 15.7002l20.7002 42.0996l46.3994 6.7998
c10.6006 1.5 19.2998 8.80078 22.6006 19c3.2998 10.2002 0.599609 21.2002 -7.10059 28.7002l-33.5 32.7002l7.90039 46.2998c1.7998 10.6006 -2.5 21.1006 -11.2002 27.4004s-20 7.09961 -29.5 2.09961l-41.5 -21.7998l-41.5 21.7998
c-4.09961 2.2002 -8.59961 3.2998 -13 3.2998c-5.7002 0 -11.5 -1.89941 -16.4004 -5.39941c-8.69922 -6.2998 -13 -16.7998 -11.1992 -27.4004zM199.4 310.9l-55 8.09961l39.7998 38.9004l-9.40039 54.7998l49.2002 -25.9004l49.2002 25.7998l-9.40039 -54.7998
l39.7998 -38.8994l-55 -8l-24.5996 -49.9004zM400 64c26.5 0 48 21.5 48 48v352c0 26.5 -21.5 48 -48 48h-352c-26.5 0 -48 -21.5 -48 -48v-352c0 -26.5 21.5 -48 48 -48h48v-56c0 -4.40039 3.59961 -8 8 -8h16c4.40039 0 8 3.59961 8 8v56h192v-56
c0 -4.40039 3.59961 -8 8 -8h16c4.40039 0 8 3.59961 8 8v56h48zM416 464v-272h-384v272c0 8.7998 7.2002 16 16 16h352c8.7998 0 16 -7.2002 16 -16zM416 160v-48c0 -8.7998 -7.2002 -16 -16 -16h-352c-8.7998 0 -16 7.2002 -16 16v48h384z" />
</svg>
