<?xml version="1.0" standalone="no"?>
<!DOCTYPE svg PUBLIC "-//W3C//DTD SVG 1.1//EN" "http://www.w3.org/Graphics/SVG/1.1/DTD/svg11.dtd" >
<svg xmlns="http://www.w3.org/2000/svg" xmlns:xlink="http://www.w3.org/1999/xlink" version="1.1" viewBox="-10 0 660 512">
   <path fill="#fff"
d="M241.85 256l-4.55957 19.79c-5.07031 3.55957 -9.33008 7.91992 -13.6396 12.21h-143.65v32c0 8.83203 -7.16797 16 -16 16h-16c-8.83203 0 -16 -7.16797 -16 -16v-34.4697c-17.5957 -5.66504 -31.9316 -25.2646 -32 -43.75v-55.1104
c0 -29.1797 17 -54.2295 41.4297 -66.5098l16.2803 -70.5498c6.21094 -27.3857 34.042 -49.6104 62.1221 -49.6104h0.238281h173.09h0.229492c28.0811 0 55.916 22.2246 62.1299 49.6104l15.8809 68.8301c10.4512 4.70605 24.2539 16.1562 30.8096 25.5596h-58.1396
c-0.660156 0 -1.28027 0.160156 -1.93066 0.160156c-0.279297 0 -0.519531 -0.160156 -0.80957 -0.160156h-266.66c-23.5264 0.0273438 -42.6426 19.1436 -42.6699 42.6699v55.1104c0.0107422 7.83789 6.38184 14.209 14.2197 14.2197h195.63zM88.8896 56.8096
l-12.7393 55.1904h260.92l-12.7305 -55.1904c-3.15723 -13.6943 -17.126 -24.8086 -31.1797 -24.8096h-173.09c-14.0537 0.000976562 -28.0225 11.1152 -31.1807 24.8096zM64 196c0 -11.04 8.95996 -20 20 -20s20 8.95996 20 20s-8.95996 20 -20 20s-20 -8.95996 -20 -20z
M308 352c11.04 0 20 8.95996 20 20s-8.95996 20 -20 20s-20 -8.95996 -20 -20s8.95996 -20 20 -20zM556 352c11.04 0 20 8.95996 20 20s-8.95996 20 -20 20s-20 -8.95996 -20 -20s8.95996 -20 20 -20zM595.4 294.44c24.5693 10.8164 44.5498 41.3838 44.5996 68.2295
v55.1104c-0.0683594 18.4854 -14.4043 38.085 -32 43.75v34.4697c0 8.83203 -7.16797 16 -16 16h-16c-8.83203 0 -16 -7.16797 -16 -16v-32h-256v32c0 8.83203 -7.16797 16 -16 16h-16c-8.83203 0 -16 -7.16797 -16 -16v-34.4697
c-17.5957 -5.66504 -31.9316 -25.2646 -32 -43.75v-55.1104c0 -29.1797 17 -54.2295 41.4297 -66.5098l16.2803 -70.5498c6.21094 -27.3857 34.042 -49.6104 62.1221 -49.6104h0.238281h173.09h0.229492c28.0811 0 55.916 22.2246 62.1299 49.6104zM312.89 232.81
l-12.7393 55.1904h260.92l-12.7305 -55.1904c-3.15723 -13.6943 -17.126 -24.8086 -31.1797 -24.8096h-173.09c-14.0537 0.000976562 -28.0225 11.1152 -31.1807 24.8096zM608 417.78v-55.1104c-0.0273438 -23.5264 -19.1436 -42.6426 -42.6699 -42.6699h-266.66
c-23.5264 0.0273438 -42.6426 19.1436 -42.6699 42.6699v55.1104c0.0107422 7.83789 6.38184 14.209 14.2197 14.2197h323.561c7.83789 -0.0107422 14.209 -6.38184 14.2197 -14.2197z" />
</svg>
