<svg width="59" height="34" viewBox="0 0 59 34" fill="none" xmlns="http://www.w3.org/2000/svg">
<path d="M57.9736 9.12407C56.3397 8.22392 51.882 9.73909 50.7207 10.5254C50.3405 9.81348 49.9091 9.03372 49.4413 8.23532C47.0499 4.15325 45.0218 1.78768 43.241 1.00376C43.1695 0.97226 43.0956 0.947059 43.0202 0.928292C42.8675 0.890356 39.1663 0 29.5001 0C19.8338 0 16.1327 0.89049 15.9798 0.928292C15.9043 0.947059 15.8305 0.97226 15.7591 1.00376C13.9784 1.78782 11.9502 4.15325 9.5587 8.23532C9.09097 9.03372 8.65943 9.81348 8.27934 10.5254C7.11806 9.73909 2.66017 8.22392 1.02646 9.12407C-0.659356 10.0529 0.0161158 12.9764 1.02646 13.7693C1.65722 14.2642 3.38787 14.4149 5.21036 14.2874C4.79804 14.8653 4.47311 15.5157 4.25313 16.2162C7.12723 16.7832 13.8833 16.7587 12.8736 19.064C11.3963 22.436 6.8493 21.9692 4.0464 20.47L4.56979 29.9773C4.56979 32.199 6.2812 34 8.39232 34H10.6911C12.8022 34 14.5135 32.199 14.5135 29.9773L14.4384 29.125H44.5617L44.4867 29.9773C44.4867 32.199 46.198 34 48.3091 34H50.6078C52.719 34 54.4304 32.199 54.4304 29.9773L54.9536 20.47C52.1509 21.9692 47.6038 22.4361 46.1265 19.064C45.1167 16.7587 51.8728 16.7832 54.747 16.2162C54.5271 15.5155 54.2022 14.8651 53.7898 14.2874C55.6123 14.415 57.3429 14.2643 57.9737 13.7693C58.9838 12.9764 59.6594 10.0529 57.9736 9.12407ZM36.8554 24.657H22.1444L20.6159 18.7917H38.3838L36.8554 24.657ZM10.9378 11.5888C12.7677 8.21964 15.106 4.62162 16.7401 3.79239C17.4253 3.6507 21.1634 2.96785 29.5 2.96785C37.8461 2.96785 41.5833 3.65231 42.2594 3.79226C43.8915 4.62028 46.2303 8.21883 48.0612 11.5888H10.9378Z" fill="#e24381"/>
</svg>
