<svg width="12" height="11" viewBox="0 0 12 11" fill="none" xmlns="http://www.w3.org/2000/svg">
<path d="M2.3858 0.00557115C2.59538 0.0111423 2.82775 0.0223985 3.04883 0.509456C3.19542 0.833699 3.44238 1.43061 3.64355 1.91685C3.80014 2.29522 3.9289 2.60658 3.96109 2.67031C4.03475 2.81584 4.08012 2.98378 3.98378 3.17968C3.97243 3.20278 3.96178 3.22486 3.95136 3.24612C3.87415 3.4053 3.81916 3.51865 3.68914 3.66669C3.63575 3.72763 3.58009 3.79437 3.52462 3.86088C3.42709 3.97788 3.33018 4.09408 3.24713 4.17617C3.0998 4.32159 2.94675 4.47849 3.11673 4.76955C3.28683 5.06062 3.88182 6.01795 4.76023 6.79041C5.7045 7.62484 6.52563 7.97651 6.94077 8.15421C7.02131 8.18878 7.0866 8.21675 7.13449 8.2404C7.42923 8.38593 7.60485 8.36353 7.77485 8.16763C7.94496 7.97162 8.51155 7.31661 8.70996 7.02554C8.90264 6.73447 9.10093 6.77927 9.373 6.88001C9.64495 6.98074 11.0957 7.68612 11.3903 7.83166C11.4485 7.86042 11.503 7.88634 11.5535 7.91045C11.7585 8.008 11.8979 8.07429 11.957 8.1732C12.0307 8.29634 12.0307 8.87858 11.787 9.56156C11.5377 10.2444 10.3363 10.8994 9.79227 10.9498C9.74072 10.9547 9.68951 10.9608 9.6367 10.9671C9.13816 11.027 8.50536 11.103 6.25047 10.222C3.47211 9.1377 1.63806 6.44716 1.26726 5.90323C1.23799 5.86025 1.21783 5.83069 1.20706 5.81637L1.20078 5.80807C1.03208 5.58397 0 4.21335 0 2.79912C0 1.44608 0.671554 0.74166 0.97785 0.420362C0.997267 0.399999 1.01521 0.381182 1.03143 0.363821C1.30339 0.0727666 1.62079 0 1.81909 0C2.0175 0 2.21581 -2.43545e-08 2.3858 0.00557115Z" fill="white"/>
</svg>
