<svg width="55" height="40" viewBox="0 0 55 40" fill="none" xmlns="http://www.w3.org/2000/svg">
<path d="M15.4062 19.9375C19.9108 19.9375 23.5625 16.2858 23.5625 11.7812C23.5625 7.27668 19.9108 3.625 15.4062 3.625C10.9017 3.625 7.25 7.27668 7.25 11.7812C7.25 16.2858 10.9017 19.9375 15.4062 19.9375Z" fill="#e24381"/>
<path d="M24.6953 24.4688C21.5053 22.8488 17.9845 22.2031 15.4062 22.2031C10.3562 22.2031 0 25.3002 0 31.4922V36.25H16.9922V34.4296C16.9922 32.2772 17.8984 30.1192 19.4844 28.3203C20.7497 26.8839 22.5214 25.5506 24.6953 24.4688Z" fill="#e24381"/>
<path d="M36.7031 23.5625C30.8046 23.5625 19.0312 27.2056 19.0312 34.4375V39.875H54.375V34.4375C54.375 27.2056 42.6017 23.5625 36.7031 23.5625Z" fill="#e24381"/>
<path d="M36.7031 19.9375C42.2087 19.9375 46.6719 15.4743 46.6719 9.96875C46.6719 4.46316 42.2087 0 36.7031 0C31.1975 0 26.7344 4.46316 26.7344 9.96875C26.7344 15.4743 31.1975 19.9375 36.7031 19.9375Z" fill="#e24381"/>
</svg>
