<?xml version="1.0" standalone="no"?>
<!DOCTYPE svg PUBLIC "-//W3C//DTD SVG 1.1//EN" "http://www.w3.org/Graphics/SVG/1.1/DTD/svg11.dtd" >
<svg xmlns="http://www.w3.org/2000/svg" xmlns:xlink="http://www.w3.org/1999/xlink" version="1.1" viewBox="-10 0 404 512">
   <path fill="#fff"
d="M192 96c52.9346 0 96 43.0654 96 96s-43.0654 96 -96 96s-96 -43.0654 -96 -96s43.0654 -96 96 -96zM192 256c35.29 0 64 -28.71 64 -64s-28.71 -64 -64 -64s-64 28.71 -64 64s28.71 64 64 64zM192 0c106.039 0 192 85.9609 192 192
c0 77.4131 -26.9697 99.0312 -172.267 309.67c-9.53613 13.7744 -29.9316 13.7725 -39.4658 0c-145.298 -210.639 -172.268 -232.257 -172.268 -309.67c0 -106.039 85.9609 -192 192 -192zM192 473.931c139.308 -201.461 160 -217.44 160 -281.931
c0 -42.7383 -16.6426 -82.917 -46.8633 -113.137c-30.2197 -30.2207 -70.3984 -46.8633 -113.137 -46.8633s-82.917 16.6426 -113.137 46.8633c-30.2207 30.2197 -46.8633 70.3984 -46.8633 113.137c0 64.4941 20.7051 80.4883 160 281.931z" />
</svg>
