<?xml version="1.0" standalone="no"?>
<!DOCTYPE svg PUBLIC "-//W3C//DTD SVG 1.1//EN" "http://www.w3.org/Graphics/SVG/1.1/DTD/svg11.dtd" >
<svg xmlns="http://www.w3.org/2000/svg" xmlns:xlink="http://www.w3.org/1999/xlink" version="1.1" viewBox="-10 0 516 512">
   <path fill="#fff"
d="M307.75 147c14.2803 -5.94043 30.0898 -2.58984 41 8.33008c10.8398 10.8604 14.1904 26.7002 8.5 40.3398l-0.25 0.549805l-83.9805 181.9c-6.39941 13.7695 -19.3096 21.9102 -33.6191 21.9102c-2.75 0 -5.60059 -0.320312 -8.44043 -0.94043
c-17.3701 -3.83984 -29.0303 -18.3398 -29.0303 -36.0596v-60.9502h-60.9697c-17.7197 0 -32.1797 -11.6699 -36.0596 -29.0303c-3.87012 -17.5195 4.5293 -34.4102 20.9092 -42.0498zM244 364.67l83.7803 -181.49c0.870117 -2.41992 -1.07031 -4.62988 -1.69043 -5.25
c-0.530273 -0.529297 -2.08984 -1.91992 -4 -1.91992c-0.5 0 -0.969727 0.0800781 -1.5 0.299805l-181.31 83.7207c-2.68066 1.23926 -3.74023 3.2998 -3.12012 6.08008c0.589844 2.63965 2.21973 3.96973 4.80957 3.96973h92.9707v92.9502
c0 2.60938 1.34961 4.22949 3.93945 4.80957c2.83984 0.719727 4.83984 -0.450195 6.12012 -3.16992zM248 8c136.97 0 248 111.03 248 248s-111.03 248 -248 248s-248 -111.03 -248 -248s111.03 -248 248 -248zM248 472c119.1 0 216 -96.9004 216 -216
s-96.9004 -216 -216 -216s-216 96.9004 -216 216s96.9004 216 216 216z" />
</svg>
