<?xml version="1.0" standalone="no"?>
<!DOCTYPE svg PUBLIC "-//W3C//DTD SVG 1.1//EN" "http://www.w3.org/Graphics/SVG/1.1/DTD/svg11.dtd" >
<svg xmlns="http://www.w3.org/2000/svg" xmlns:xlink="http://www.w3.org/1999/xlink" version="1.1" viewBox="-10 0 660 512">
   <path fill="#fff"
d="M320 144c53.0195 0 96 50.1396 96 112c0 61.8701 -43 112 -96 112c-53.0195 0 -96 -50.1504 -96 -112c0 -61.8604 42.9805 -112 96 -112zM320 336c35.29 0 64 -35.8896 64 -80s-28.71 -80 -64 -80s-64 35.8896 -64 80s28.71 80 64 80zM621.16 54.46
c11.6094 4.87012 18.8398 16.8301 18.8398 29.4697v317.261c0 18.4893 -15.04 31.8096 -32.25 31.8096c-14.6602 0 -38.0898 -15.3496 -103 -15.3496c-123.17 0 -246.33 62.3496 -369.5 62.3496c-38.7998 0 -77.6201 -6.19043 -116.41 -22.4697
c-11.6094 -4.86035 -18.8398 -16.8301 -18.8398 -29.46v-317.261c0 -18.4893 15.04 -31.8096 32.25 -31.8096c14.6504 0 38.0898 15.3398 103 15.3398c123.17 0 246.33 -62.3496 369.5 -62.3398c38.7998 0 77.6201 6.19043 116.41 22.46zM32.9502 111.26l-0.219727 73.3203
c33.6592 -0.389648 60.9199 -27.0205 62.8896 -60.4297c-21.6396 -2.36035 -42.4502 -6.4707 -62.6699 -12.8906zM32 428.07c19.8799 8.43945 41.0596 13.8496 63.5098 16.8896c-2.5 -33.1201 -29.7998 -59.3604 -63.3799 -59.4297zM607.05 400.74l0.219727 -71.3906
c-33 0.380859 -59.7998 26.0205 -62.6895 58.5205c21.5703 2.36035 42.3096 6.46973 62.4697 12.8701zM607.36 297.2l0.40918 -136.67c-52.7295 -0.129883 -95.5596 -43.1406 -95.7393 -96.0703c-57.7305 -1.33008 -109.431 10.9502 -184.221 29.8896
c-63.3799 16.04 -129.869 33.2803 -200.399 31.8701c-3.06055 50.2002 -44.1299 90.1807 -94.7803 90.5205l-0.410156 136.67c52.0703 0.120117 94.3203 42.1094 95.5498 94.1299c57.8701 1.33984 109.341 -10.8701 184.41 -29.8701
c63.4199 -16.0498 129.87 -33.2998 200.601 -31.8701c3.98926 -49.2803 44.5801 -88.2598 94.5801 -88.5996zM607.87 128.4l0.129883 -44.4707c-19.9297 -8.45996 -41.1797 -13.8799 -63.71 -16.9102c1.54004 34.04 29.3398 61.3105 63.5801 61.3809z" />
</svg>
