<svg width="16" height="17" viewBox="0 0 16 17" fill="none" xmlns="http://www.w3.org/2000/svg">
<path d="M15.208 13.0394L13.3412 11.2698C12.9118 10.8713 12.2416 10.7566 11.7272 11.0379L9.8278 11.9943C9.60627 12.1236 9.30678 12.055 9.12773 11.8445L6.76907 9.35484L4.71094 6.65149C4.53188 6.44097 4.56277 6.19377 4.72463 5.99423L6.20622 4.5466C6.63104 4.16008 6.67457 3.5379 6.35788 3.05924L4.94191 0.969136C4.50585 0.350119 3.60354 0.175235 2.96491 0.629326L1.01144 2.01831C0.710906 2.232 0.533607 2.55514 0.491128 2.89504C0.265753 6.06773 1.44159 9.25765 3.47092 11.6436C5.50026 14.0296 8.59199 15.8573 12.0106 16.439C12.3775 16.5159 12.7675 16.4075 13.0681 16.1938L15.0215 14.8048C15.7199 14.4209 15.7943 13.5515 15.208 13.0394Z" fill="#721e3f"/>
</svg>
