<svg width="16" height="15" viewBox="0 0 16 15" fill="none" xmlns="http://www.w3.org/2000/svg">
<path d="M13.7966 0.00186404C12.9914 0.0450358 12.3386 0.692613 12.3168 1.49129C12.2951 2.18204 12.7303 2.78644 13.3614 3.0023V6.52081C13.3614 6.67191 13.2308 6.80142 13.0785 6.80142H10.5759C10.4236 6.80142 10.293 6.67191 10.293 6.52081V3.02389C10.9241 2.80803 11.3593 2.20363 11.3376 1.51288C11.3158 0.692613 10.663 0.0450358 9.85781 0.00186404C8.94384 -0.0413078 8.20396 0.671027 8.20396 1.55605C8.20396 2.22521 8.63918 2.80803 9.24849 3.02389V6.54239C9.24849 6.69349 9.11793 6.82301 8.9656 6.82301H6.46307C6.31074 6.82301 6.18017 6.69349 6.18017 6.54239V3.02389C6.81124 2.80803 7.24647 2.20363 7.22471 1.51288C7.20294 0.714199 6.55011 0.0666217 5.74495 0.0234499C4.83098 -0.0197219 4.0911 0.692613 4.0911 1.57763C4.0911 2.2468 4.52632 2.82962 5.13563 3.04548V6.56398C5.13563 6.71508 5.00507 6.84459 4.85274 6.84459H2.37197C2.21964 6.84459 2.08907 6.71508 2.08907 6.56398V3.02389C2.72015 2.80803 3.15537 2.20363 3.13361 1.51288C3.11185 0.692613 2.45901 0.0450358 1.65385 0.00186404C0.73988 -0.0413078 0 0.671027 0 1.55605C0 2.22521 0.435223 2.80803 1.04454 3.02389V7.34107C1.04454 7.36266 1.04454 7.38424 1.04454 7.38424C1.0663 7.64327 1.30567 7.85913 1.5668 7.85913H4.8745C5.02683 7.85913 5.1574 7.98865 5.1574 8.13975V11.5719C4.52632 11.7878 4.0911 12.3922 4.11286 13.0829C4.13462 13.8816 4.78746 14.5292 5.59262 14.5723C6.50659 14.6155 7.24647 13.9032 7.24647 13.0182C7.24647 12.349 6.81124 11.7662 6.20193 11.5503V8.13975C6.20193 7.98865 6.3325 7.85913 6.48483 7.85913H8.98736C9.13969 7.85913 9.27026 7.98865 9.27026 8.13975V11.5719C8.63918 11.7878 8.20396 12.3922 8.22572 13.0829C8.24748 13.8816 8.90032 14.5292 9.70548 14.5723C10.6194 14.6155 11.3593 13.9032 11.3593 13.0182C11.3593 12.349 10.9241 11.7662 10.3148 11.5503V8.13975C10.3148 7.98865 10.4454 7.85913 10.5977 7.85913H13.9054C14.1883 7.85913 14.4059 7.64327 14.4277 7.38424C14.4277 7.36266 14.4277 7.34107 14.4277 7.34107V3.02389C15.0152 2.80803 15.4504 2.22521 15.4504 1.55605C15.4504 0.671027 14.6888 -0.0413078 13.7966 0.00186404ZM1.5668 2.07411C1.28391 2.07411 1.04454 1.83667 1.04454 1.55605C1.04454 1.27543 1.28391 1.03799 1.5668 1.03799C1.8497 1.03799 2.08907 1.27543 2.08907 1.55605C2.08907 1.83667 1.8497 2.07411 1.5668 2.07411ZM5.67966 13.5578C5.39677 13.5578 5.1574 13.3204 5.1574 13.0397V13.0182V12.9966V12.975V12.9534V12.9318V12.9102V12.8886C5.1574 12.8886 5.1574 12.8671 5.17916 12.8671C5.2662 12.716 5.44029 12.608 5.63614 12.608C5.83199 12.608 6.02784 12.7375 6.09313 12.9102V12.9318V12.9534C6.09313 12.975 6.09313 12.9966 6.11489 13.0182V13.0397V13.0613V13.0829C6.18017 13.3204 5.96256 13.5578 5.67966 13.5578ZM5.67966 2.07411C5.39677 2.07411 5.1574 1.83667 5.1574 1.55605C5.1574 1.27543 5.39677 1.03799 5.67966 1.03799C5.96256 1.03799 6.20193 1.27543 6.20193 1.55605C6.20193 1.83667 5.96256 2.07411 5.67966 2.07411ZM9.77076 13.5578C9.48787 13.5578 9.24849 13.3204 9.24849 13.0397C9.24849 12.7591 9.48787 12.5217 9.77076 12.5217C10.0537 12.5217 10.293 12.7591 10.293 13.0397C10.293 13.3204 10.0537 13.5578 9.77076 13.5578ZM9.77076 2.07411C9.48787 2.07411 9.24849 1.83667 9.24849 1.55605C9.24849 1.27543 9.48787 1.03799 9.77076 1.03799C10.0537 1.03799 10.293 1.27543 10.293 1.55605C10.293 1.83667 10.0537 2.07411 9.77076 2.07411ZM13.8836 2.07411C13.6007 2.07411 13.3614 1.83667 13.3614 1.55605C13.3614 1.27543 13.6007 1.03799 13.8836 1.03799C14.1665 1.03799 14.4059 1.27543 14.4059 1.55605C14.4059 1.83667 14.1665 2.07411 13.8836 2.07411Z" fill="#25333F"/>
</svg>
