<svg width="13" height="15" viewBox="0 0 13 15" fill="none" xmlns="http://www.w3.org/2000/svg">
<path d="M12.8524 10.2908C12.8066 8.67199 12.715 7.65448 12.4859 6.77571C12.3713 6.31321 12.2797 6.10508 12.211 5.9432C12.1422 5.78133 12.1193 5.68883 12.0506 5.41132C11.9819 4.99507 11.959 4.64819 11.936 4.30131C11.936 4.27818 11.936 4.23193 11.936 4.20881L12.0964 3.60755C12.1651 3.30692 12.0964 3.00629 11.8902 2.77504L11.0884 1.94253C10.7447 1.5494 10.3324 1.22564 9.85125 0.994388C9.64506 0.901887 9.41596 0.971263 9.32432 1.17939C9.23268 1.38752 9.30141 1.61877 9.5076 1.71127C9.85125 1.89628 10.1491 2.1044 10.424 2.38191C10.4469 2.54378 10.4469 2.72879 10.4698 2.86754C10.4927 3.09879 10.5615 3.30692 10.676 3.51505L11.1571 4.16256C11.1571 4.23193 11.1571 4.27818 11.1571 4.34756C11.18 4.69444 11.18 5.08757 11.2717 5.5732C11.3404 5.9432 11.4091 6.10508 11.4778 6.26696C11.5466 6.40571 11.6153 6.59071 11.7299 7.00697C11.8902 7.60823 12.0277 8.41761 12.0735 10.337C12.1193 12.3027 11.8444 12.5802 11.7986 12.6033C11.6382 12.6958 11.3862 12.7189 11.2029 12.6264C10.7676 12.4183 10.6531 11.5164 10.5844 10.7995C10.5156 10.1983 10.5385 9.75888 10.5615 9.36575C10.5844 8.81074 10.6073 8.32511 10.3094 7.79323C10.0574 7.35385 9.64506 7.00697 9.09522 6.75259L9.0494 0.647509C9.0494 0.277504 8.75157 0 8.40793 0L1.30586 0.0231253C0.939305 0.0231253 0.664387 0.323754 0.664387 0.670634L0.687296 13.2739C0.687296 13.4589 0.526927 13.6208 0.343648 13.6208C0.160369 13.6208 0 13.7827 0 13.9677V14.2452C0 14.4302 0.160369 14.5921 0.343648 14.5921L9.41596 14.5689C9.59924 14.5689 9.75961 14.4071 9.75961 14.2221V13.9446C9.75961 13.7596 9.59924 13.5977 9.41596 13.5977C9.23268 13.5977 9.07231 13.4358 9.07231 13.2508L9.0494 7.63135C9.2785 7.7701 9.46178 7.9551 9.57633 8.16323C9.75961 8.46386 9.75961 8.71824 9.71379 9.27325C9.69088 9.66638 9.66797 10.1751 9.7367 10.8458C9.82834 11.7708 9.94289 12.9039 10.7906 13.3202C10.9967 13.4127 11.2258 13.4589 11.432 13.4589C11.684 13.4589 11.959 13.3896 12.1651 13.2508C12.6233 12.9964 12.8983 12.3952 12.8524 10.2908ZM7.14788 5.43445L2.56591 5.45757C2.19935 5.45757 1.92443 5.15694 1.92443 4.81006V2.17378C1.92443 1.80377 2.22226 1.52627 2.56591 1.52627L7.14788 1.50314C7.51444 1.50314 7.78936 1.80377 7.78936 2.15065V4.78694C7.78936 5.13382 7.51444 5.43445 7.14788 5.43445Z" fill="#25333F"/>
</svg>
