<svg width="11" height="18" viewBox="0 0 11 18" fill="none" xmlns="http://www.w3.org/2000/svg">
<path d="M9.75254 4.57164H8.69396V1.37137C8.69396 0.61528 8.07882 0 7.3226 0H3.62746C2.87137 0 2.25603 0.61528 2.25603 1.37137V4.57157H1.19752C0.536201 4.57157 0 5.10777 0 5.76908V14.8107C0 15.4723 0.536339 16.0083 1.19752 16.0083H1.35809V16.8776C1.35809 17.0377 1.48777 17.1671 1.64745 17.1671H3.01688C3.17691 17.1671 3.30638 17.0375 3.30638 16.8776V16.0083H7.64333V16.8776C7.64333 17.0377 7.77315 17.1671 7.93283 17.1671H9.30212C9.46228 17.1671 9.59161 17.0375 9.59161 16.8776V16.0083H9.7524C10.4137 16.0083 10.9499 15.4721 10.9499 14.8107V5.76915C10.9501 5.1077 10.4139 4.57164 9.75254 4.57164ZM7.77951 4.57157H3.17013V1.37137C3.17013 1.11934 3.37522 0.914244 3.62725 0.914244H7.32239C7.57442 0.914244 7.77951 1.11934 7.77951 1.37137V4.57157Z" fill="#25333F"/>
</svg>
