<svg width="14" height="17" viewBox="0 0 14 17" fill="none" xmlns="http://www.w3.org/2000/svg">
<path d="M3.22712 12.7193L4.63743 12.5042C4.70458 11.2723 4.65422 9.78611 4.31843 8.12394C3.99943 6.59866 3.51254 5.32759 3.05922 4.34985C2.87454 3.95875 2.52196 3.72409 2.11902 3.70454C1.95113 3.70454 1.80002 3.68498 1.63213 3.68498C0.893395 3.62632 0.339346 4.34985 0.507239 5.09293L2.33728 13.6384C2.40444 13.1691 2.75702 12.778 3.22712 12.7193Z" fill="#25333F"/>
<path d="M1.38021 3.46978L1.49774 3.43067C2.25326 3.11779 2.47152 2.3747 2.38757 1.59251C2.32042 0.790756 1.93426 0.145444 1.09479 0.028115L1.01085 0.00856007C0.456796 -0.0696595 -0.0468851 0.399658 0.00348302 0.947195L0.188166 2.80491C0.255324 3.35245 0.859741 3.68488 1.38021 3.46978Z" fill="#25333F"/>
<path d="M11.3194 11.6047L3.24375 12.8953C2.80722 12.9735 2.47144 13.3646 2.47144 13.8535C2.47144 14.3815 2.87438 14.8117 3.37806 14.8117H12.8473C13.351 14.8117 13.7539 14.3815 13.7539 13.8535C13.7371 12.4651 12.5954 11.4091 11.3194 11.6047ZM3.42843 14.2641C3.22696 14.2641 3.05906 14.0881 3.05906 13.873C3.05906 13.6579 3.22696 13.4819 3.42843 13.4819C3.6299 13.4819 3.7978 13.6579 3.7978 13.873C3.81459 14.0881 3.64669 14.2641 3.42843 14.2641Z" fill="#25333F"/>
<path d="M11.8567 15.0266H3.91537C3.6971 15.0266 3.57958 15.3004 3.73068 15.4764L3.79784 15.5546C4.20078 16.0435 4.77162 16.3172 5.37604 16.3172H10.4129C11.0005 16.3172 11.5545 16.063 11.9575 15.5937L12.0582 15.4764C12.1925 15.3004 12.0918 15.0266 11.8567 15.0266ZM11.3531 15.535C11.0173 15.8088 10.5807 15.9652 10.1274 15.9652H5.62788C5.17457 15.9652 4.73804 15.8088 4.40226 15.535C4.36868 15.4959 4.38547 15.4373 4.43584 15.4373H11.3195C11.3698 15.4373 11.4034 15.4959 11.3531 15.535Z" fill="#25333F"/>
<path d="M3.42865 13.6187C3.29434 13.6187 3.1936 13.736 3.1936 13.8729C3.1936 14.0098 3.29434 14.1271 3.42865 14.1271C3.56297 14.1271 3.66371 14.0098 3.66371 13.8729C3.66371 13.736 3.56297 13.6187 3.42865 13.6187Z" fill="#25333F"/>
</svg>
