<?xml version="1.0" standalone="no"?>
<!DOCTYPE svg PUBLIC "-//W3C//DTD SVG 1.1//EN" "http://www.w3.org/Graphics/SVG/1.1/DTD/svg11.dtd" >
<svg xmlns="http://www.w3.org/2000/svg" xmlns:xlink="http://www.w3.org/1999/xlink" version="1.1" viewBox="-10 0 468 512">
   <path fill="#fff"
d="M320 352c70.6562 0 128 57.3438 128 128c0 17.6641 -14.3359 32 -32 32h-384c-17.6641 0 -32 -14.3359 -32 -32c0.0107422 -70.6445 57.3555 -127.98 128 -127.98v0h4.74023c12.1299 0 23.9395 2.88086 35.4199 6.78027c14.9863 5.08398 39.9941 9.20996 55.8203 9.20996
c15.8252 0 40.833 -4.12598 55.8193 -9.20996c11.5 -3.89941 23.3398 -6.7998 35.5 -6.7998h4.7002zM32 480l384 -0.0195312c-0.0546875 -52.9375 -43.0635 -95.9453 -96 -96h-4.7002c-6.91016 0 -14.9297 1.61914 -25.2402 5.10938
c-17.7412 6.0166 -47.3457 10.9004 -66.0791 10.9004c-18.7344 0 -48.3389 -4.88379 -66.0801 -10.9004c-10.2402 -3.46973 -18.2402 -5.08984 -25.1602 -5.08984h-4.74023c-52.9365 0.0546875 -95.9453 43.0635 -96 96zM48 224c-8.83203 0 -16 -7.16797 -16 -16v-16
c0 -105.88 86.1201 -192 192 -192s192 86.1201 192 192v16c-0.0771484 61.7471 -50.2529 111.923 -112 112h-96c-17.6641 0 -32 -14.3359 -32 -32s14.3359 -32 32 -32h32c17.6641 0 32 14.3359 32 32h32c44.1104 -0.0498047 79.9502 -35.8896 80 -80v-16
c0 -88.2197 -71.7803 -160 -160 -160s-160 71.7803 -160 160v16c0 8.83203 -7.16797 16 -16 16zM224 96c-0.12793 -0.000976562 -0.334961 -0.000976562 -0.461914 -0.000976562c-52.7607 0 -95.5801 42.8193 -95.5801 95.5801c0 20.4521 11.1875 49.3125 24.9717 64.4209
c-4.86816 8.16113 -8.86914 22.4971 -8.92969 32c0 1.19043 0.290039 2.2998 0.349609 3.46973c-29.25 -23.4697 -48.3496 -59.0498 -48.3496 -99.4697c0 -70.6562 57.3438 -128 128 -128s128 57.3438 128 128c0 14.5801 -3 28.3604 -7.4502 41.4199
c-7.73926 12.4316 -25.9053 22.5479 -40.5498 22.5801h-8.58984c-0.0498047 -0.0898438 -0.179688 -0.150391 -0.179688 -0.240234c13.6709 -15.0791 24.7656 -43.8369 24.7656 -64.1904c0 -52.7549 -42.8154 -95.5703 -95.5693 -95.5703
c-0.118164 0 -0.308594 0 -0.426758 0.000976562z" />
</svg>
