<svg width="16" height="15" viewBox="0 0 16 15" fill="none" xmlns="http://www.w3.org/2000/svg">
<path d="M5.13251 3.90116C5.27056 3.90486 5.42361 3.91233 5.56923 4.23556C5.66579 4.45074 5.82845 4.84688 5.96096 5.16956C6.06411 5.42067 6.14892 5.6273 6.17012 5.66959C6.21864 5.76618 6.24852 5.87762 6.18506 6.00763C6.17759 6.02296 6.17057 6.03762 6.16371 6.05173C6.11285 6.15736 6.07663 6.23259 5.99099 6.33083C5.95582 6.37128 5.91916 6.41557 5.88262 6.45971C5.81838 6.53735 5.75455 6.61447 5.69985 6.66895C5.60281 6.76545 5.50199 6.86958 5.61396 7.06274C5.72599 7.25591 6.1179 7.89123 6.69649 8.40387C7.31846 8.95763 7.85932 9.19101 8.13277 9.30895C8.18581 9.33189 8.22882 9.35045 8.26036 9.36614C8.45451 9.46273 8.57018 9.44786 8.68215 9.31785C8.7942 9.18777 9.1674 8.75308 9.29809 8.55991C9.425 8.36675 9.55562 8.39648 9.73482 8.46333C9.91395 8.53018 10.8695 8.9983 11.0636 9.09488C11.1019 9.11398 11.1378 9.13118 11.1711 9.14718C11.3061 9.21192 11.3979 9.25591 11.4368 9.32155C11.4854 9.40327 11.4854 9.78967 11.3249 10.2429C11.1607 10.6961 10.3693 11.1308 10.011 11.1642C9.97703 11.1675 9.9433 11.1715 9.90852 11.1757C9.58014 11.2155 9.16333 11.2659 7.67808 10.6812C5.84803 9.96163 4.63999 8.17607 4.39575 7.8151C4.37647 7.78658 4.36319 7.76696 4.3561 7.75745L4.35197 7.75195C4.24084 7.60322 3.56104 6.69362 3.56104 5.75508C3.56104 4.85715 4.00337 4.38966 4.20512 4.17643C4.21791 4.16292 4.22973 4.15043 4.24041 4.13891C4.41955 3.94575 4.62861 3.89746 4.75923 3.89746C4.88992 3.89746 5.02054 3.89746 5.13251 3.90116Z" fill="white"/>
<path fill-rule="evenodd" clip-rule="evenodd" d="M0.0755079 14.5864C0.0137709 14.8105 0.217868 15.0173 0.44276 14.9586L3.91921 14.0506C5.01659 14.645 6.25208 14.9608 7.50999 14.9608H7.51376C11.6532 14.9608 15.0275 11.606 15.0275 7.4823C15.0275 5.48355 14.2473 3.60367 12.8289 2.19189C11.4105 0.780178 9.52561 0 7.51368 0C3.3743 0 4.88771e-07 3.35475 4.88771e-07 7.47861C-0.000474875 8.79046 0.345801 10.0794 1.00406 11.2159L0.0755079 14.5864ZM2.09523 11.5166C2.17583 11.224 2.13556 10.9113 1.98348 10.6487C1.425 9.68444 1.13142 8.59088 1.13182 7.47861C1.13182 3.98519 3.99402 1.13182 7.51368 1.13182C9.22643 1.13182 10.8243 1.79354 12.0305 2.99408C13.2353 4.19329 13.8956 5.78443 13.8956 7.4823C13.8956 10.9755 11.0335 13.8289 7.51376 13.8289H7.50999C6.44117 13.8289 5.39087 13.5605 4.45827 13.0554C4.20586 12.9187 3.91092 12.883 3.63318 12.9556L1.54882 13.5L2.09523 11.5166Z" fill="white"/>
</svg>
